# xmcd CD database file
#
# Track frame offsets:
#	150
#	13116
#	26268
#	40686
#	52120
#	67194
#	76498
#	90220
#	101354
#	118477
#	129071
#	140983
#
# Disc length: 2102 seconds
#
# Revision: 0
# Processed by: cddbd v1.5.1PL2 Copyright (c) Steve Scherf et al.
# Submitted via: CDex 1.51
#
DISCID=9d08340c
DTITLE=Charlie Louvin - Hero Icon
DYEAR=1900
DGENRE=Country
TTITLE0=See The Big Man
TTITLE1=Will You Visit Me On Sundays
TTITLE2=Think I'll Go Somewhere And Cry Myself To Sleep
TTITLE3=If I Could Only Win Your Love
TTITLE4=She Is
TTITLE5=Tonight I'm Going To The Gallos
TTITLE6=The Best Mistakes I Ever Made
TTITLE7=The Same Thing On Our Minds
TTITLE8=Ten Years, Three Kids And Two Love Too Late
TTITLE9=Hoping That Your Hoping
TTITLE10=This Lady Loving Me
TTITLE11=It Will Never Be Over For Me
EXTD=
EXTT0=
EXTT1=
EXTT2=
EXTT3=
EXTT4=
EXTT5=
EXTT6=
EXTT7=
EXTT8=
EXTT9=
EXTT10=
EXTT11=
PLAYORDER=
